<svg id="visual" viewBox="0 0 960 150" width="960" height="150" xmlns="http://www.w3.org/2000/svg" xmlns:xlink="http://www.w3.org/1999/xlink" version="1.1"><path d="M0 21L14.5 22.2C29 23.3 58 25.7 87.2 27.2C116.3 28.7 145.7 29.3 174.8 30.2C204 31 233 32 262 32C291 32 320 31 349 29.7C378 28.3 407 26.7 436.2 27.8C465.3 29 494.7 33 523.8 32C553 31 582 25 611 24.8C640 24.7 669 30.3 698 31.7C727 33 756 30 785.2 30C814.3 30 843.7 33 872.8 32.7C902 32.3 931 28.7 945.5 26.8L960 25L960 0L945.5 0C931 0 902 0 872.8 0C843.7 0 814.3 0 785.2 0C756 0 727 0 698 0C669 0 640 0 611 0C582 0 553 0 523.8 0C494.7 0 465.3 0 436.2 0C407 0 378 0 349 0C320 0 291 0 262 0C233 0 204 0 174.8 0C145.7 0 116.3 0 87.2 0C58 0 29 0 14.5 0L0 0Z" fill="#ff7799"></path><path d="M0 73L14.5 72.8C29 72.7 58 72.3 87.2 71.3C116.3 70.3 145.7 68.7 174.8 68.8C204 69 233 71 262 74.2C291 77.3 320 81.7 349 78.2C378 74.7 407 63.3 436.2 61C465.3 58.7 494.7 65.3 523.8 68.2C553 71 582 70 611 72.7C640 75.3 669 81.7 698 81.8C727 82 756 76 785.2 73.3C814.3 70.7 843.7 71.3 872.8 74.7C902 78 931 84 945.5 87L960 90L960 23L945.5 24.8C931 26.7 902 30.3 872.8 30.7C843.7 31 814.3 28 785.2 28C756 28 727 31 698 29.7C669 28.3 640 22.7 611 22.8C582 23 553 29 523.8 30C494.7 31 465.3 27 436.2 25.8C407 24.7 378 26.3 349 27.7C320 29 291 30 262 30C233 30 204 29 174.8 28.2C145.7 27.3 116.3 26.7 87.2 25.2C58 23.7 29 21.3 14.5 20.2L0 19Z" fill="#f970b1"></path><path d="M0 96L14.5 95.2C29 94.3 58 92.7 87.2 92.7C116.3 92.7 145.7 94.3 174.8 93.5C204 92.7 233 89.3 262 89.5C291 89.7 320 93.3 349 90.5C378 87.7 407 78.3 436.2 76.8C465.3 75.3 494.7 81.7 523.8 84.3C553 87 582 86 611 88.7C640 91.3 669 97.7 698 99.2C727 100.7 756 97.3 785.2 97C814.3 96.7 843.7 99.3 872.8 101.3C902 103.3 931 104.7 945.5 105.3L960 106L960 88L945.5 85C931 82 902 76 872.8 72.7C843.7 69.3 814.3 68.7 785.2 71.3C756 74 727 80 698 79.8C669 79.7 640 73.3 611 70.7C582 68 553 69 523.8 66.2C494.7 63.3 465.3 56.7 436.2 59C407 61.3 378 72.7 349 76.2C320 79.7 291 75.3 262 72.2C233 69 204 67 174.8 66.8C145.7 66.7 116.3 68.3 87.2 69.3C58 70.3 29 70.7 14.5 70.8L0 71Z" fill="#e96fcc"></path><path d="M0 138L14.5 136.2C29 134.3 58 130.7 87.2 129.3C116.3 128 145.7 129 174.8 130.5C204 132 233 134 262 134.5C291 135 320 134 349 133C378 132 407 131 436.2 130.5C465.3 130 494.7 130 523.8 131C553 132 582 134 611 135C640 136 669 136 698 134.5C727 133 756 130 785.2 131C814.3 132 843.7 137 872.8 139.5C902 142 931 142 945.5 142L960 142L960 104L945.5 103.3C931 102.7 902 101.3 872.8 99.3C843.7 97.3 814.3 94.7 785.2 95C756 95.3 727 98.7 698 97.2C669 95.7 640 89.3 611 86.7C582 84 553 85 523.8 82.3C494.7 79.7 465.3 73.3 436.2 74.8C407 76.3 378 85.7 349 88.5C320 91.3 291 87.7 262 87.5C233 87.3 204 90.7 174.8 91.5C145.7 92.3 116.3 90.7 87.2 90.7C58 90.7 29 92.3 14.5 93.2L0 94Z" fill="#cc75e7"></path><path d="M0 151L14.5 151C29 151 58 151 87.2 151C116.3 151 145.7 151 174.8 151C204 151 233 151 262 151C291 151 320 151 349 151C378 151 407 151 436.2 151C465.3 151 494.7 151 523.8 151C553 151 582 151 611 151C640 151 669 151 698 151C727 151 756 151 785.2 151C814.3 151 843.7 151 872.8 151C902 151 931 151 945.5 151L960 151L960 140L945.5 140C931 140 902 140 872.8 137.5C843.7 135 814.3 130 785.2 129C756 128 727 131 698 132.5C669 134 640 134 611 133C582 132 553 130 523.8 129C494.7 128 465.3 128 436.2 128.5C407 129 378 130 349 131C320 132 291 133 262 132.5C233 132 204 130 174.8 128.5C145.7 127 116.3 126 87.2 127.3C58 128.7 29 132.3 14.5 134.2L0 136Z" fill="#9e7fff"></path></svg>