<svg id="visual" viewBox="0 0 960 150" width="960" height="150" xmlns="http://www.w3.org/2000/svg" xmlns:xlink="http://www.w3.org/1999/xlink" version="1.1"><path d="M0 37L14.5 34.3C29 31.7 58 26.3 87.2 23.3C116.3 20.3 145.7 19.7 174.8 21.3C204 23 233 27 262 27.5C291 28 320 25 349 24.3C378 23.7 407 25.3 436.2 24.7C465.3 24 494.7 21 523.8 20.5C553 20 582 22 611 25C640 28 669 32 698 35C727 38 756 40 785.2 39C814.3 38 843.7 34 872.8 31.7C902 29.3 931 28.7 945.5 28.3L960 28L960 0L945.5 0C931 0 902 0 872.8 0C843.7 0 814.3 0 785.2 0C756 0 727 0 698 0C669 0 640 0 611 0C582 0 553 0 523.8 0C494.7 0 465.3 0 436.2 0C407 0 378 0 349 0C320 0 291 0 262 0C233 0 204 0 174.8 0C145.7 0 116.3 0 87.2 0C58 0 29 0 14.5 0L0 0Z" fill="#9e7fff"></path><path d="M0 58L14.5 56C29 54 58 50 87.2 48.5C116.3 47 145.7 48 174.8 49.8C204 51.7 233 54.3 262 52.7C291 51 320 45 349 43.5C378 42 407 45 436.2 45C465.3 45 494.7 42 523.8 43C553 44 582 49 611 50.2C640 51.3 669 48.7 698 48.3C727 48 756 50 785.2 51.5C814.3 53 843.7 54 872.8 53.8C902 53.7 931 52.3 945.5 51.7L960 51L960 26L945.5 26.3C931 26.7 902 27.3 872.8 29.7C843.7 32 814.3 36 785.2 37C756 38 727 36 698 33C669 30 640 26 611 23C582 20 553 18 523.8 18.5C494.7 19 465.3 22 436.2 22.7C407 23.3 378 21.7 349 22.3C320 23 291 26 262 25.5C233 25 204 21 174.8 19.3C145.7 17.7 116.3 18.3 87.2 21.3C58 24.3 29 29.7 14.5 32.3L0 35Z" fill="#8592ff"></path><path d="M0 79L14.5 77.3C29 75.7 58 72.3 87.2 70.2C116.3 68 145.7 67 174.8 69.2C204 71.3 233 76.7 262 75.3C291 74 320 66 349 62.7C378 59.3 407 60.7 436.2 61C465.3 61.3 494.7 60.7 523.8 62.8C553 65 582 70 611 69.5C640 69 669 63 698 63C727 63 756 69 785.2 72.5C814.3 76 843.7 77 872.8 75.5C902 74 931 70 945.5 68L960 66L960 49L945.5 49.7C931 50.3 902 51.7 872.8 51.8C843.7 52 814.3 51 785.2 49.5C756 48 727 46 698 46.3C669 46.7 640 49.3 611 48.2C582 47 553 42 523.8 41C494.7 40 465.3 43 436.2 43C407 43 378 40 349 41.5C320 43 291 49 262 50.7C233 52.3 204 49.7 174.8 47.8C145.7 46 116.3 45 87.2 46.5C58 48 29 52 14.5 54L0 56Z" fill="#75a1ff"></path><path d="M0 121L14.5 119.8C29 118.7 58 116.3 87.2 117.3C116.3 118.3 145.7 122.7 174.8 125.8C204 129 233 131 262 130.5C291 130 320 127 349 124.5C378 122 407 120 436.2 117.3C465.3 114.7 494.7 111.3 523.8 108.2C553 105 582 102 611 100.7C640 99.3 669 99.7 698 104.8C727 110 756 120 785.2 120C814.3 120 843.7 110 872.8 105.7C902 101.3 931 102.7 945.5 103.3L960 104L960 64L945.5 66C931 68 902 72 872.8 73.5C843.7 75 814.3 74 785.2 70.5C756 67 727 61 698 61C669 61 640 67 611 67.5C582 68 553 63 523.8 60.8C494.7 58.7 465.3 59.3 436.2 59C407 58.7 378 57.3 349 60.7C320 64 291 72 262 73.3C233 74.7 204 69.3 174.8 67.2C145.7 65 116.3 66 87.2 68.2C58 70.3 29 73.7 14.5 75.3L0 77Z" fill="#6eaeff"></path><path d="M0 151L14.5 151C29 151 58 151 87.2 151C116.3 151 145.7 151 174.8 151C204 151 233 151 262 151C291 151 320 151 349 151C378 151 407 151 436.2 151C465.3 151 494.7 151 523.8 151C553 151 582 151 611 151C640 151 669 151 698 151C727 151 756 151 785.2 151C814.3 151 843.7 151 872.8 151C902 151 931 151 945.5 151L960 151L960 102L945.5 101.3C931 100.7 902 99.3 872.8 103.7C843.7 108 814.3 118 785.2 118C756 118 727 108 698 102.8C669 97.7 640 97.3 611 98.7C582 100 553 103 523.8 106.2C494.7 109.3 465.3 112.7 436.2 115.3C407 118 378 120 349 122.5C320 125 291 128 262 128.5C233 129 204 127 174.8 123.8C145.7 120.7 116.3 116.3 87.2 115.3C58 114.3 29 116.7 14.5 117.8L0 119Z" fill="#6ebaff"></path></svg>