<?xml version="1.0" encoding="UTF-8" standalone="no"?>
<svg
   id="visual"
   viewBox="0 0 960 150"
   width="960"
   height="150"
   version="1.1"
   sodipodi:docname="wave-haikei.svg"
   xmlns:inkscape="http://www.inkscape.org/namespaces/inkscape"
   xmlns:sodipodi="http://sodipodi.sourceforge.net/DTD/sodipodi-0.dtd"
   xmlns="http://www.w3.org/2000/svg"
   xmlns:svg="http://www.w3.org/2000/svg">
  <defs
     id="defs15" />
  <sodipodi:namedview
     id="namedview13"
     pagecolor="#505050"
     bordercolor="#eeeeee"
     borderopacity="1"
     inkscape:showpageshadow="0"
     inkscape:pageopacity="0"
     inkscape:pagecheckerboard="0"
     inkscape:deskcolor="#505050"
     showgrid="false" />
  <path
     d="m 0,57 14.5,-3.3 c 14.5,-3.4 43.5,-10 72.7,-12 29.1,-2 58.5,0.6 87.6,0 C 204,41 233,37 262,38.5 c 29,1.5 58,8.5 87,8.2 29,-0.4 58,-8 87.2,-10 29.1,-2 58.5,1.6 87.6,2.5 C 553,40 582,38 611,40.7 c 29,2.6 58,10 87,13 29,3 58,1.6 87.2,-1.4 29.1,-3 58.5,-7.6 87.6,-8.5 C 902,43 931,46 945.5,47.5 L 960,49 V 23 h -14.5 c -14.5,0 -43.5,0 -72.7,1.8 -29.1,1.9 -58.5,5.5 -87.6,8 C 756,35.3 727,36.7 698,34.3 669,32 640,26 611,22.5 582,19 553,18 523.8,17.5 494.7,17 465.3,17 436.2,21.3 407,25.7 378,34.3 349,33.8 320,33.3 291,23.7 262,21.3 233,19 204,24 174.8,24.3 145.7,24.7 116.3,20.3 87.2,20.7 58,21 29,26 14.5,28.5 L 0,31 Z"
     fill="#ffdee5"
     id="path4" />
  <path
     d="m 0,72 14.5,-2.3 c 14.5,-2.4 43.5,-7 72.7,-6.5 29.1,0.5 58.5,6.1 87.6,5.1 29.2,-1 58.2,-8.6 87.2,-8.6 29,0 58,7.6 87,9.6 29,2 58,-1.6 87.2,-4.1 29.1,-2.5 58.5,-3.9 87.6,-5.5 C 553,58 582,56 611,59.5 640,63 669,72 698,76 c 29,4 58,3 87.2,-1 29.1,-4 58.5,-11 87.6,-13.3 29.2,-2.4 58.2,0 72.7,1.1 L 960,64 V 47 L 945.5,45.5 C 931,44 902,41 872.8,41.8 843.7,42.7 814.3,47.3 785.2,50.3 756,53.3 727,54.7 698,51.7 669,48.7 640,41.3 611,38.7 582,36 553,38 523.8,37.2 494.7,36.3 465.3,32.7 436.2,34.7 407,36.7 378,44.3 349,44.7 320,45 291,38 262,36.5 233,35 204,39 174.8,39.7 c -29.1,0.6 -58.5,-2 -87.6,0 -29.2,2 -58.2,8.6 -72.7,12 L 0,55 Z"
     fill="#ffbdcb"
     id="path6" />
  <path
     d="m 0,112 14.5,2.3 c 14.5,2.4 43.5,7 72.7,7.5 29.1,0.5 58.5,-3.1 87.6,-5.1 29.2,-2 58.2,-2.4 87.2,-3.5 29,-1.2 58,-3.2 87,-6.7 29,-3.5 58,-8.5 87.2,-9.5 29.1,-1 58.5,2 87.6,3.5 29.2,1.5 58.2,1.5 87.2,1.2 29,-0.4 58,-1 87,-2 29,-1 58,-2.4 87.2,1.1 29.1,3.5 58.5,11.9 87.6,14.9 29.2,3 58.2,0.6 72.7,-0.5 L 960,114 V 62 L 945.5,60.8 C 931,59.7 902,57.3 872.8,59.7 843.7,62 814.3,69 785.2,73 756,77 727,78 698,74 669,70 640,61 611,57.5 582,54 553,56 523.8,57.7 c -29.1,1.6 -58.5,3 -87.6,5.5 -29.2,2.5 -58.2,6.1 -87.2,4.1 -29,-2 -58,-9.6 -87,-9.6 -29,0 -58,7.6 -87.2,8.6 -29.1,1 -58.5,-4.6 -87.6,-5.1 C 58,60.7 29,65.3 14.5,67.7 L 0,70 Z"
     fill="#ff9bb2"
     id="path8" />
  <path
     d="m 0,151 h 14.5 c 14.5,0 43.5,0 72.7,0 29.1,0 58.5,0 87.6,0 29.2,0 58.2,0 87.2,0 29,0 58,0 87,0 29,0 58,0 87.2,0 29.1,0 58.5,0 87.6,0 29.2,0 58.2,0 87.2,0 29,0 58,0 87,0 29,0 58,0 87.2,0 29.1,0 58.5,0 87.6,0 29.2,0 58.2,0 72.7,0 H 960 v -39 l -14.5,1.2 c -14.5,1.1 -43.5,3.5 -72.7,0.5 -29.1,-3 -58.5,-11.4 -87.6,-14.9 C 756,95.3 727,96.7 698,97.7 c -29,1 -58,1.6 -87,2 C 582,100 553,100 523.8,98.5 494.7,97 465.3,94 436.2,95 407,96 378,101 349,104.5 c -29,3.5 -58,5.5 -87,6.7 -29,1.1 -58,1.5 -87.2,3.5 -29.1,2 -58.5,5.6 -87.6,5.1 C 58,119.3 29,114.7 14.5,112.3 L 0,110 Z"
     fill="#ff7799"
     id="path10" />
</svg>
